<svg viewBox="0 0 313.35 452.2" xmlns="http://www.w3.org/2000/svg"><g fill="#5ea68c"><path d="m107.85 234.12c10.78-7 19.4-12.47 31-15.3 36-8.74 74.7 8.56 86.42 49 11.36 39.2-8.12 83.35-49.67 95.37-38.41 11.12-75.26-7.64-88.59-45.34-3.3-9.32-4-13.41-4.55-22.38s0 0 0 0a163.52 163.52 0 0 0 -2.66-16.33c-5.42-27.36-24.45-46.26-46.7-39.73-16.62 4.88-29.33 24.94-32.55 44.82-.13.81-.15 1.64-.21 2.47-1.34 19.47 1.33 39.3 6.19 54.41 26.65 82.9 109.74 126.73 190.24 106 85.25-22 135-112.5 110.21-193.9-23.41-76.87-84.21-107.88-130.37-113.21-28.66-3.33-47.09.62-64.47 5.32-21.8 5.89-34.68 15.3-50.93 29.09-.93.75-1.85 1.53-2.73 2.36-12.06 11.38-32.32 38.74-20.48 54.7 12.84 17.28 24.68 20.18 47.72 12.94a95 95 0 0 0 22.11-10.29"/><path d="m313.31 295.72v-253.66c0-40.89 0-42.54-32.82-42-23.19.39-50 15.23-51.16 59.81v98.7"/></g></svg>