<?xml version="1.0" standalone="no"?><!DOCTYPE svg PUBLIC "-//W3C//DTD SVG 1.1//EN" "http://www.w3.org/Graphics/SVG/1.1/DTD/svg11.dtd"><svg class="icon" height="512" viewBox="0 0 1024 1024" version="1.1" xmlns="http://www.w3.org/2000/svg"><path d="M0 505.6c0 51.2 6.4 108.8 25.6 153.6h377.6c12.8-51.2 19.2-96 19.2-147.2 0-51.2-6.4-102.4-19.2-147.2h-384C6.4 409.6 0 454.4 0 505.6zM761.6 364.8H473.6c12.8 44.8 19.2 96 19.2 147.2 0 51.2-6.4 96-19.2 147.2h288c89.6 0 160-64 160-147.2 0-83.2-70.4-147.2-160-147.2zM57.6 294.4H384c-38.4-76.8-83.2-147.2-134.4-204.8-83.2 51.2-153.6 121.6-192 204.8zM819.2 294.4c83.2 0 153.6-32 204.8-83.2-102.4-128-275.2-211.2-467.2-211.2C460.8 0 384 19.2 307.2 57.6c64 64 108.8 147.2 140.8 230.4l371.2 6.4zM51.2 729.6h326.4c-32 76.8-76.8 147.2-134.4 198.4-76.8-44.8-147.2-115.2-192-198.4zM819.2 729.6c83.2 0 153.6 32 204.8 83.2-102.4 128-281.6 211.2-467.2 211.2-96 0-172.8-25.6-249.6-57.6 64-64 108.8-147.2 140.8-230.4l371.2-6.4z" /></svg>